<svg xmlns="http://www.w3.org/2000/svg" width="32" height="32" viewBox="0 0 32 32">
  <defs>
    <linearGradient id="g" x1="0%" y1="0%" x2="100%" y2="100%">
      <stop offset="0%" stop-color="#06b6d4"/>
      <stop offset="100%" stop-color="#0891b2"/>
    </linearGradient>
  </defs>
  <rect width="32" height="32" rx="8" fill="#0a0e17"/>
  <g transform="translate(16,16)">
    <!-- Helm wheel (⎈) stylized -->
    <circle cx="0" cy="0" r="10" fill="none" stroke="url(#g)" stroke-width="1.5"/>
    <circle cx="0" cy="0" r="4" fill="none" stroke="url(#g)" stroke-width="1.5"/>
    <!-- 8 spokes -->
    <line x1="0" y1="-4" x2="0" y2="-10" stroke="url(#g)" stroke-width="1.5" stroke-linecap="round"/>
    <line x1="2.83" y1="-2.83" x2="7.07" y2="-7.07" stroke="url(#g)" stroke-width="1.5" stroke-linecap="round"/>
    <line x1="4" y1="0" x2="10" y2="0" stroke="url(#g)" stroke-width="1.5" stroke-linecap="round"/>
    <line x1="2.83" y1="2.83" x2="7.07" y2="7.07" stroke="url(#g)" stroke-width="1.5" stroke-linecap="round"/>
    <line x1="0" y1="4" x2="0" y2="10" stroke="url(#g)" stroke-width="1.5" stroke-linecap="round"/>
    <line x1="-2.83" y1="2.83" x2="-7.07" y2="7.07" stroke="url(#g)" stroke-width="1.5" stroke-linecap="round"/>
    <line x1="-4" y1="0" x2="-10" y2="0" stroke="url(#g)" stroke-width="1.5" stroke-linecap="round"/>
    <line x1="-2.83" y1="-2.83" x2="-7.07" y2="-7.07" stroke="url(#g)" stroke-width="1.5" stroke-linecap="round"/>
    <!-- 8 handle dots -->
    <circle cx="0" cy="-11.5" r="1.5" fill="url(#g)"/>
    <circle cx="8.13" cy="-8.13" r="1.5" fill="url(#g)"/>
    <circle cx="11.5" cy="0" r="1.5" fill="url(#g)"/>
    <circle cx="8.13" cy="8.13" r="1.5" fill="url(#g)"/>
    <circle cx="0" cy="11.5" r="1.5" fill="url(#g)"/>
    <circle cx="-8.13" cy="8.13" r="1.5" fill="url(#g)"/>
    <circle cx="-11.5" cy="0" r="1.5" fill="url(#g)"/>
    <circle cx="-8.13" cy="-8.13" r="1.5" fill="url(#g)"/>
  </g>
</svg>
